<svg width="1320" height="350" viewBox="0 0 1320 350" fill="none" xmlns="http://www.w3.org/2000/svg">
<g clip-path="url(#clip0_557_4100)">
<rect width="1320" height="350" rx="16" fill="#0068FF"/>
<ellipse cx="1357.5" cy="305.5" rx="149.5" ry="127.5" fill="#6FA4F3" fill-opacity="0.5"/>
<ellipse cx="-74.918" cy="43.5" rx="149.5" ry="127.5" transform="rotate(180 -74.918 43.5)" fill="#6FA4F3" fill-opacity="0.5"/>
<rect opacity="0.2" x="1406.56" y="-26" width="186.664" height="202.935" transform="rotate(90 1406.56 -26)" fill="#6FA4F3"/>
<rect opacity="0.2" x="-123.98" y="375" width="186.664" height="202.935" transform="rotate(-90 -123.98 375)" fill="#6FA4F3"/>
<ellipse opacity="0.07" cx="1304.89" cy="252.583" rx="93" ry="101.106" transform="rotate(90 1304.89 252.583)" fill="#6FA4F3"/>
<ellipse opacity="0.07" cx="-22.3123" cy="96.4141" rx="93" ry="101.106" transform="rotate(-90 -22.3123 96.4141)" fill="#6FA4F3"/>
<rect opacity="0.1" x="1203.29" y="106" width="177.64" height="193.126" transform="rotate(90 1203.29 106)" fill="#6FA4F3"/>
<rect opacity="0.1" x="79.2891" y="243" width="177.64" height="193.126" transform="rotate(-90 79.2891 243)" fill="#6FA4F3"/>
<path opacity="0.1" d="M1011.17 106C1020.01 115.639 1026.69 127.435 1030.85 140.714C1035 153.994 1036.54 168.497 1035.38 183.396C1034.21 198.295 1030.37 213.297 1024.07 227.547C1017.77 241.797 1009.14 255.015 998.659 266.446C988.18 277.877 976.063 287.298 963.001 294.171C949.939 301.044 936.187 305.233 922.529 306.501C908.872 307.769 895.577 306.089 883.405 301.559C871.232 297.029 860.419 289.736 851.583 280.097L931.378 193.049L1011.17 106Z" fill="#6FA4F3"/>
<path opacity="0.1" d="M271.41 242.999C262.574 233.36 255.889 221.564 251.736 208.285C247.584 195.005 246.044 180.502 247.206 165.603C248.368 150.704 252.209 135.702 258.509 121.452C264.809 107.202 273.445 93.9844 283.923 82.553C294.402 71.1217 306.519 61.7007 319.581 54.828C332.643 47.9554 346.396 43.7656 360.053 42.498C373.71 41.2304 387.005 42.9097 399.177 47.4401C411.35 51.9705 422.163 59.2632 430.999 68.9019L351.204 155.95L271.41 242.999Z" fill="#6FA4F3"/>
<path opacity="0.2" d="M1011.23 -3.93509C1011.23 7.68748 1013.72 19.1962 1018.55 29.9341C1023.39 40.6719 1030.47 50.4286 1039.41 58.647C1048.34 66.8654 1058.95 73.3846 1070.62 77.8323C1082.3 82.2801 1094.81 84.5693 1107.44 84.5693C1120.08 84.5693 1132.59 82.2801 1144.27 77.8323C1155.94 73.3846 1166.55 66.8654 1175.48 58.647C1184.42 50.4286 1191.5 40.6719 1196.34 29.9341C1201.17 19.1962 1203.66 7.68744 1203.66 -3.93512L1107.44 -3.9351L1011.23 -3.93509Z" fill="#6FA4F3"/>
<path opacity="0.2" d="M271.355 352.934C271.355 341.312 268.867 329.803 264.031 319.065C259.196 308.327 252.108 298.57 243.174 290.352C234.239 282.134 223.632 275.614 211.958 271.167C200.285 266.719 187.773 264.43 175.137 264.43C162.502 264.43 149.99 266.719 138.316 271.167C126.642 275.614 116.035 282.134 107.101 290.352C98.1659 298.57 91.0785 308.327 86.2431 319.065C81.4077 329.803 78.9189 341.312 78.9189 352.934L175.137 352.934L271.355 352.934Z" fill="#6FA4F3"/>
</g>
<defs>
<clipPath id="clip0_557_4100">
<rect width="1320" height="350" rx="16" fill="white"/>
</clipPath>
</defs>
</svg>
