<svg width="572" height="512" viewBox="0 0 572 512" fill="none" xmlns="http://www.w3.org/2000/svg">
<line x1="20" y1="255.25" x2="209" y2="255.25" stroke="#EA4232" stroke-width="1.5" stroke-dasharray="5 5"/>
<path d="M8.00001 355L46.8828 355C69.8026 355 88.3828 336.42 88.3828 313.5L88.3828 296.617C88.3828 283.021 99.4043 272 113 272V272" stroke="#EA4232" stroke-width="1.5" stroke-dasharray="5 5"/>
<path d="M8.00001 157L46.8828 157C69.8026 157 88.3828 175.58 88.3828 198.5L88.3828 215.383C88.3828 228.979 99.4043 240 113 240V240" stroke="#EA4232" stroke-width="1.5" stroke-dasharray="5 5"/>
<path d="M1.68289e-05 448V448C48.6011 448 88.3911 408.601 88.3911 360L88.3911 296.609C88.3911 283.018 99.4089 272 113 272V272" stroke="#EA4232" stroke-width="1.5" stroke-dasharray="5 5"/>
<path d="M1.67852e-05 64V64C48.6011 64 88.3911 103.399 88.3911 152L88.3911 215.391C88.3911 228.982 99.4089 240 113 240V240" stroke="#EA4232" stroke-width="1.5" stroke-dasharray="5 5"/>
<line y1="-0.75" x2="189" y2="-0.75" transform="matrix(-1 -8.74228e-08 -8.74228e-08 1 552 256)" stroke="#084BFF" stroke-width="1.5" stroke-dasharray="5 5"/>
<path d="M564 355L525.117 355C502.197 355 483.617 336.42 483.617 313.5L483.617 296.617C483.617 283.021 472.596 272 459 272V272" stroke="#084BFF" stroke-width="1.5" stroke-dasharray="5 5"/>
<path d="M564 157L525.117 157C502.197 157 483.617 175.58 483.617 198.5L483.617 215.383C483.617 228.979 472.596 240 459 240V240" stroke="#084BFF" stroke-width="1.5" stroke-dasharray="5 5"/>
<path d="M572 448V448C523.399 448 483.609 408.601 483.609 360L483.609 296.609C483.609 283.018 472.591 272 459 272V272" stroke="#084BFF" stroke-width="1.5" stroke-dasharray="5 5"/>
<path d="M572 64V64C523.399 64 483.609 103.399 483.609 152L483.609 215.391C483.609 228.982 472.591 240 459 240V240" stroke="#084BFF" stroke-width="1.5" stroke-dasharray="5 5"/>
<g filter="url(#filter0_d_137_68)">
<circle cx="285" cy="255.973" r="181" transform="rotate(135 285 255.973)" fill="white"/>
</g>
<g filter="url(#filter1_d_137_68)">
<circle cx="284.701" cy="255.975" r="161.298" fill="url(#paint0_linear_137_68)" fill-opacity="0.8"/>
</g>
<g filter="url(#filter2_d_137_68)">
<circle cx="284.261" cy="255.976" r="138.134" fill="url(#paint1_linear_137_68)"/>
</g>
<path d="M226.085 206.973L220.325 187.965L219.461 185.181H223.525L229.413 204.701L227.429 204.509L232.517 185.181H236.741L230.789 206.973H226.085ZM212.197 206.973L206.245 185.181H210.469L215.557 204.509L213.573 204.701L219.461 185.181H223.525L222.693 187.965L216.901 206.973H212.197ZM244.499 207.293C242.942 207.293 241.577 206.962 240.403 206.301C239.23 205.618 238.323 204.669 237.683 203.453C237.043 202.237 236.723 200.807 236.723 199.165C236.723 197.543 237.043 196.125 237.683 194.909C238.323 193.671 239.23 192.711 240.403 192.029C241.577 191.325 242.942 190.973 244.499 190.973C246.078 190.973 247.443 191.325 248.595 192.029C249.769 192.733 250.675 193.703 251.315 194.941C251.955 196.157 252.275 197.554 252.275 199.133C252.275 199.367 252.265 199.602 252.243 199.837C252.243 200.05 252.222 200.231 252.179 200.381H240.147V197.245H249.011L248.371 198.749C248.371 197.426 248.051 196.349 247.411 195.517C246.793 194.685 245.822 194.269 244.499 194.269C243.347 194.269 242.419 194.631 241.715 195.357C241.011 196.061 240.659 197.01 240.659 198.205V199.901C240.659 201.159 241.011 202.151 241.715 202.877C242.441 203.581 243.422 203.933 244.659 203.933C245.747 203.933 246.601 203.709 247.219 203.261C247.838 202.813 248.371 202.258 248.819 201.597L251.731 203.261C251.027 204.562 250.067 205.565 248.851 206.269C247.657 206.951 246.206 207.293 244.499 207.293ZM264.271 206.973V190.141C264.271 188.989 264.474 188.018 264.879 187.229C265.306 186.418 265.893 185.81 266.639 185.405C267.386 184.999 268.271 184.797 269.295 184.797C269.807 184.797 270.266 184.829 270.671 184.893C271.077 184.957 271.407 185.021 271.663 185.085V188.925C271.45 188.882 271.226 188.839 270.991 188.797C270.778 188.754 270.522 188.733 270.223 188.733C269.69 188.733 269.263 188.893 268.943 189.213C268.623 189.511 268.463 190.013 268.463 190.717V206.973H264.271ZM271.311 195.517H262.063V191.677H271.311V195.517ZM277.97 206.973H273.778V191.325H277.97V206.973ZM273.33 186.461C273.33 185.693 273.554 185.074 274.002 184.605C274.471 184.114 275.09 183.869 275.858 183.869C276.626 183.869 277.234 184.114 277.682 184.605C278.151 185.074 278.386 185.693 278.386 186.461C278.386 187.186 278.151 187.783 277.682 188.253C277.234 188.722 276.626 188.957 275.858 188.957C275.09 188.957 274.471 188.722 274.002 188.253C273.554 187.783 273.33 187.186 273.33 186.461ZM291.156 206.973L287.476 201.213H288.66L285.012 206.973H280.212L286.164 198.365L286.196 199.933L280.276 191.325H285.076L288.692 197.053H287.444L291.06 191.325H295.86L289.94 199.933L290.004 198.365L295.924 206.973H291.156ZM312.993 207.261C311.393 207.261 310.124 206.845 309.185 206.013C308.268 205.159 307.809 203.805 307.809 201.949V191.517L307.745 191.325L308.609 187.645H312.001V201.277C312.001 201.959 312.161 202.461 312.481 202.781C312.823 203.079 313.249 203.229 313.761 203.229C314.103 203.229 314.412 203.207 314.689 203.165C314.967 203.101 315.212 203.037 315.425 202.973V206.877C315.084 207.005 314.721 207.101 314.337 207.165C313.953 207.229 313.505 207.261 312.993 207.261ZM305.377 195.197V191.325H315.425V195.197H305.377ZM318.714 206.973V185.181H322.906V206.973H318.714ZM328.794 206.973V197.469C328.794 196.509 328.602 195.869 328.218 195.549C327.855 195.229 327.386 195.069 326.81 195.069C326.277 195.069 325.733 195.175 325.178 195.389C324.623 195.581 324.101 195.869 323.61 196.253C323.141 196.615 322.735 197.031 322.394 197.501L321.37 194.269C321.925 193.629 322.554 193.063 323.258 192.573C323.983 192.082 324.751 191.698 325.562 191.421C326.373 191.122 327.226 190.973 328.122 190.973C329.189 190.973 330.042 191.154 330.682 191.517C331.343 191.879 331.834 192.37 332.154 192.989C332.495 193.607 332.719 194.311 332.826 195.101C332.933 195.869 332.986 196.669 332.986 197.501V206.973H328.794ZM340.657 206.973H336.465V191.325H340.657V206.973ZM336.017 186.461C336.017 185.693 336.241 185.074 336.689 184.605C337.159 184.114 337.777 183.869 338.545 183.869C339.313 183.869 339.921 184.114 340.369 184.605C340.839 185.074 341.073 185.693 341.073 186.461C341.073 187.186 340.839 187.783 340.369 188.253C339.921 188.722 339.313 188.957 338.545 188.957C337.777 188.957 337.159 188.722 336.689 188.253C336.241 187.783 336.017 187.186 336.017 186.461ZM349.78 207.389C348.585 207.389 347.444 207.143 346.356 206.653C345.289 206.162 344.34 205.309 343.508 204.093L346.068 201.853C346.75 202.621 347.401 203.175 348.02 203.517C348.66 203.837 349.374 203.997 350.164 203.997C350.697 203.997 351.124 203.869 351.444 203.613C351.764 203.357 351.924 203.037 351.924 202.653C351.924 202.397 351.838 202.173 351.668 201.981C351.497 201.767 351.177 201.565 350.708 201.373C350.26 201.181 349.598 200.978 348.724 200.765C347.102 200.338 345.886 199.762 345.076 199.037C344.265 198.29 343.86 197.245 343.86 195.901C343.86 194.983 344.094 194.151 344.564 193.405C345.033 192.637 345.705 192.029 346.58 191.581C347.476 191.133 348.532 190.909 349.748 190.909C351.177 190.909 352.393 191.186 353.396 191.741C354.42 192.295 355.241 192.967 355.86 193.757L353.14 196.029C352.734 195.602 352.212 195.229 351.572 194.909C350.932 194.589 350.185 194.429 349.332 194.429C348.862 194.429 348.446 194.535 348.084 194.749C347.721 194.962 347.54 195.271 347.54 195.677C347.54 196.061 347.732 196.381 348.116 196.637C348.521 196.893 349.289 197.159 350.42 197.437C352.34 197.885 353.716 198.493 354.548 199.261C355.38 200.029 355.796 201.053 355.796 202.333C355.796 203.357 355.529 204.253 354.996 205.021C354.462 205.767 353.737 206.354 352.82 206.781C351.924 207.186 350.91 207.389 349.78 207.389ZM360.744 207.229C360.211 207.229 359.709 207.101 359.24 206.845C358.792 206.567 358.429 206.205 358.152 205.757C357.875 205.287 357.736 204.786 357.736 204.253C357.736 203.677 357.875 203.165 358.152 202.717C358.429 202.269 358.792 201.917 359.24 201.661C359.709 201.383 360.211 201.245 360.744 201.245C361.32 201.245 361.832 201.383 362.28 201.661C362.728 201.917 363.091 202.269 363.368 202.717C363.645 203.165 363.784 203.677 363.784 204.253C363.784 204.786 363.645 205.287 363.368 205.757C363.091 206.205 362.728 206.567 362.28 206.845C361.832 207.101 361.32 207.229 360.744 207.229ZM182.232 238.333V234.333H190.968V238.333H182.232ZM183.384 246.973H179.192V225.181H192.664V229.181H182.04L183.384 227.549V246.973ZM199.451 247.421C198.299 247.421 197.286 247.207 196.411 246.781C195.537 246.333 194.865 245.714 194.395 244.925C193.926 244.114 193.691 243.175 193.691 242.109C193.691 241.042 193.937 240.114 194.427 239.325C194.939 238.535 195.633 237.927 196.507 237.501C197.382 237.053 198.374 236.829 199.483 236.829C200.998 236.829 202.225 237.181 203.163 237.885C204.123 238.567 204.774 239.549 205.115 240.829L203.163 240.573V236.797C203.163 236.199 202.95 235.666 202.523 235.197C202.097 234.727 201.403 234.493 200.443 234.493C199.846 234.493 199.185 234.567 198.459 234.717C197.734 234.845 196.977 235.101 196.187 235.485L194.939 232.413C195.857 231.965 196.827 231.613 197.851 231.357C198.897 231.101 199.942 230.973 200.987 230.973C202.417 230.973 203.601 231.229 204.539 231.741C205.478 232.253 206.182 232.957 206.651 233.853C207.121 234.749 207.355 235.773 207.355 236.925V246.973H204.027L203.131 243.997L205.115 243.421C204.753 244.679 204.081 245.661 203.099 246.365C202.139 247.069 200.923 247.421 199.451 247.421ZM200.603 244.221C201.371 244.221 201.99 244.029 202.459 243.645C202.929 243.261 203.163 242.749 203.163 242.109C203.163 241.447 202.929 240.935 202.459 240.573C201.99 240.189 201.371 239.997 200.603 239.997C199.835 239.997 199.217 240.189 198.747 240.573C198.278 240.935 198.043 241.447 198.043 242.109C198.043 242.749 198.278 243.261 198.747 243.645C199.217 244.029 199.835 244.221 200.603 244.221ZM216.123 247.389C214.929 247.389 213.787 247.143 212.699 246.653C211.633 246.162 210.683 245.309 209.851 244.093L212.411 241.853C213.094 242.621 213.745 243.175 214.363 243.517C215.003 243.837 215.718 243.997 216.507 243.997C217.041 243.997 217.467 243.869 217.787 243.613C218.107 243.357 218.267 243.037 218.267 242.653C218.267 242.397 218.182 242.173 218.011 241.981C217.841 241.767 217.521 241.565 217.051 241.373C216.603 241.181 215.942 240.978 215.067 240.765C213.446 240.338 212.23 239.762 211.419 239.037C210.609 238.29 210.203 237.245 210.203 235.901C210.203 234.983 210.438 234.151 210.907 233.405C211.377 232.637 212.049 232.029 212.923 231.581C213.819 231.133 214.875 230.909 216.091 230.909C217.521 230.909 218.737 231.186 219.739 231.741C220.763 232.295 221.585 232.967 222.203 233.757L219.483 236.029C219.078 235.602 218.555 235.229 217.915 234.909C217.275 234.589 216.529 234.429 215.675 234.429C215.206 234.429 214.79 234.535 214.427 234.749C214.065 234.962 213.883 235.271 213.883 235.677C213.883 236.061 214.075 236.381 214.459 236.637C214.865 236.893 215.633 237.159 216.763 237.437C218.683 237.885 220.059 238.493 220.891 239.261C221.723 240.029 222.139 241.053 222.139 242.333C222.139 243.357 221.873 244.253 221.339 245.021C220.806 245.767 220.081 246.354 219.163 246.781C218.267 247.186 217.254 247.389 216.123 247.389ZM231.493 247.261C229.893 247.261 228.624 246.845 227.685 246.013C226.768 245.159 226.309 243.805 226.309 241.949V231.517L226.245 231.325L227.109 227.645H230.501V241.277C230.501 241.959 230.661 242.461 230.981 242.781C231.323 243.079 231.749 243.229 232.261 243.229C232.603 243.229 232.912 243.207 233.189 243.165C233.467 243.101 233.712 243.037 233.925 242.973V246.877C233.584 247.005 233.221 247.101 232.837 247.165C232.453 247.229 232.005 247.261 231.493 247.261ZM223.877 235.197V231.325H233.925V235.197H223.877ZM250.326 247.421C249.174 247.421 248.161 247.207 247.286 246.781C246.412 246.333 245.74 245.714 245.27 244.925C244.801 244.114 244.566 243.175 244.566 242.109C244.566 241.042 244.812 240.114 245.302 239.325C245.814 238.535 246.508 237.927 247.382 237.501C248.257 237.053 249.249 236.829 250.358 236.829C251.873 236.829 253.1 237.181 254.038 237.885C254.998 238.567 255.649 239.549 255.99 240.829L254.038 240.573V236.797C254.038 236.199 253.825 235.666 253.398 235.197C252.972 234.727 252.278 234.493 251.318 234.493C250.721 234.493 250.06 234.567 249.334 234.717C248.609 234.845 247.852 235.101 247.062 235.485L245.814 232.413C246.732 231.965 247.702 231.613 248.726 231.357C249.772 231.101 250.817 230.973 251.862 230.973C253.292 230.973 254.476 231.229 255.414 231.741C256.353 232.253 257.057 232.957 257.526 233.853C257.996 234.749 258.23 235.773 258.23 236.925V246.973H254.902L254.006 243.997L255.99 243.421C255.628 244.679 254.956 245.661 253.974 246.365C253.014 247.069 251.798 247.421 250.326 247.421ZM251.478 244.221C252.246 244.221 252.865 244.029 253.334 243.645C253.804 243.261 254.038 242.749 254.038 242.109C254.038 241.447 253.804 240.935 253.334 240.573C252.865 240.189 252.246 239.997 251.478 239.997C250.71 239.997 250.092 240.189 249.622 240.573C249.153 240.935 248.918 241.447 248.918 242.109C248.918 242.749 249.153 243.261 249.622 243.645C250.092 244.029 250.71 244.221 251.478 244.221ZM271.028 230.973C272.095 230.973 272.948 231.154 273.588 231.517C274.249 231.879 274.74 232.37 275.06 232.989C275.401 233.607 275.625 234.311 275.732 235.101C275.839 235.869 275.892 236.669 275.892 237.501V246.973H271.7V237.469C271.7 236.509 271.508 235.869 271.124 235.549C270.761 235.229 270.292 235.069 269.716 235.069C269.183 235.069 268.639 235.175 268.084 235.389C267.529 235.581 267.007 235.869 266.516 236.253C266.047 236.615 265.641 237.031 265.3 237.501L264.756 235.325H265.812V246.973H261.62V231.325H264.756L265.62 234.333L264.276 234.269C264.831 233.629 265.46 233.063 266.164 232.573C266.889 232.082 267.657 231.698 268.468 231.421C269.279 231.122 270.132 230.973 271.028 230.973ZM285.423 247.357C283.994 247.357 282.735 247.005 281.647 246.301C280.559 245.597 279.717 244.626 279.119 243.389C278.522 242.151 278.223 240.733 278.223 239.133C278.223 237.511 278.522 236.093 279.119 234.877C279.738 233.639 280.591 232.679 281.679 231.997C282.767 231.314 284.015 230.973 285.423 230.973C286.81 230.973 288.015 231.293 289.039 231.933C290.063 232.573 290.863 233.501 291.439 234.717C292.015 235.933 292.303 237.405 292.303 239.133C292.303 240.797 292.015 242.247 291.439 243.485C290.863 244.701 290.053 245.65 289.007 246.333C287.983 247.015 286.789 247.357 285.423 247.357ZM286.159 243.485C287.247 243.485 288.133 243.09 288.815 242.301C289.498 241.49 289.839 240.445 289.839 239.165C289.839 237.863 289.498 236.818 288.815 236.029C288.133 235.218 287.247 234.813 286.159 234.813C285.093 234.813 284.207 235.218 283.503 236.029C282.821 236.818 282.479 237.853 282.479 239.133C282.479 240.413 282.821 241.458 283.503 242.269C284.207 243.079 285.093 243.485 286.159 243.485ZM290.703 246.973L289.647 243.261H289.935V235.421H289.647V225.181H293.839V246.973H290.703ZM311.217 247.389C310.022 247.389 308.881 247.143 307.793 246.653C306.726 246.162 305.777 245.309 304.945 244.093L307.505 241.853C308.188 242.621 308.838 243.175 309.457 243.517C310.097 243.837 310.812 243.997 311.601 243.997C312.134 243.997 312.561 243.869 312.881 243.613C313.201 243.357 313.361 243.037 313.361 242.653C313.361 242.397 313.276 242.173 313.105 241.981C312.934 241.767 312.614 241.565 312.145 241.373C311.697 241.181 311.036 240.978 310.161 240.765C308.54 240.338 307.324 239.762 306.513 239.037C305.702 238.29 305.297 237.245 305.297 235.901C305.297 234.983 305.532 234.151 306.001 233.405C306.47 232.637 307.142 232.029 308.017 231.581C308.913 231.133 309.969 230.909 311.185 230.909C312.614 230.909 313.83 231.186 314.833 231.741C315.857 232.295 316.678 232.967 317.297 233.757L314.577 236.029C314.172 235.602 313.649 235.229 313.009 234.909C312.369 234.589 311.622 234.429 310.769 234.429C310.3 234.429 309.884 234.535 309.521 234.749C309.158 234.962 308.977 235.271 308.977 235.677C308.977 236.061 309.169 236.381 309.553 236.637C309.958 236.893 310.726 237.159 311.857 237.437C313.777 237.885 315.153 238.493 315.985 239.261C316.817 240.029 317.233 241.053 317.233 242.333C317.233 243.357 316.966 244.253 316.433 245.021C315.9 245.767 315.174 246.354 314.257 246.781C313.361 247.186 312.348 247.389 311.217 247.389ZM319.901 246.973V231.325H323.037L323.901 234.333L322.557 234.269C323.112 233.629 323.72 233.063 324.381 232.573C325.043 232.082 325.757 231.698 326.525 231.421C327.315 231.122 328.136 230.973 328.989 230.973C330.056 230.973 330.909 231.154 331.549 231.517C332.189 231.879 332.659 232.37 332.957 232.989C333.277 233.607 333.491 234.311 333.597 235.101C333.725 235.869 333.789 236.669 333.789 237.501V246.973H329.597V237.469C329.597 236.509 329.405 235.869 329.021 235.549C328.637 235.229 328.179 235.069 327.645 235.069C326.877 235.069 326.131 235.303 325.405 235.773C324.68 236.221 324.072 236.797 323.581 237.501L323.037 235.325H324.093V246.973H319.901ZM339.261 246.973V237.469C339.261 236.509 339.069 235.869 338.685 235.549C338.323 235.229 337.875 235.069 337.341 235.069C336.573 235.069 335.827 235.303 335.101 235.773C334.376 236.221 333.768 236.797 333.277 237.501L332.221 234.269C332.776 233.629 333.384 233.063 334.045 232.573C334.728 232.082 335.453 231.698 336.221 231.421C337.011 231.122 337.832 230.973 338.685 230.973C339.731 230.973 340.573 231.154 341.213 231.517C341.853 231.879 342.333 232.37 342.653 232.989C342.973 233.607 343.187 234.311 343.293 235.101C343.421 235.869 343.485 236.669 343.485 237.501V246.973H339.261ZM351.576 247.421C350.424 247.421 349.411 247.207 348.536 246.781C347.662 246.333 346.99 245.714 346.52 244.925C346.051 244.114 345.816 243.175 345.816 242.109C345.816 241.042 346.062 240.114 346.552 239.325C347.064 238.535 347.758 237.927 348.632 237.501C349.507 237.053 350.499 236.829 351.608 236.829C353.123 236.829 354.35 237.181 355.288 237.885C356.248 238.567 356.899 239.549 357.24 240.829L355.288 240.573V236.797C355.288 236.199 355.075 235.666 354.648 235.197C354.222 234.727 353.528 234.493 352.568 234.493C351.971 234.493 351.31 234.567 350.584 234.717C349.859 234.845 349.102 235.101 348.312 235.485L347.064 232.413C347.982 231.965 348.952 231.613 349.976 231.357C351.022 231.101 352.067 230.973 353.112 230.973C354.542 230.973 355.726 231.229 356.664 231.741C357.603 232.253 358.307 232.957 358.776 233.853C359.246 234.749 359.48 235.773 359.48 236.925V246.973H356.152L355.256 243.997L357.24 243.421C356.878 244.679 356.206 245.661 355.224 246.365C354.264 247.069 353.048 247.421 351.576 247.421ZM352.728 244.221C353.496 244.221 354.115 244.029 354.584 243.645C355.054 243.261 355.288 242.749 355.288 242.109C355.288 241.447 355.054 240.935 354.584 240.573C354.115 240.189 353.496 239.997 352.728 239.997C351.96 239.997 351.342 240.189 350.872 240.573C350.403 240.935 350.168 241.447 350.168 242.109C350.168 242.749 350.403 243.261 350.872 243.645C351.342 244.029 351.96 244.221 352.728 244.221ZM366.006 231.325L367.062 235.645V246.973H362.87V231.325H366.006ZM366.198 237.789L365.43 237.437V234.237L365.718 233.885C365.953 233.501 366.305 233.085 366.774 232.637C367.265 232.189 367.819 231.805 368.438 231.485C369.078 231.143 369.739 230.973 370.422 230.973C370.763 230.973 371.073 230.994 371.35 231.037C371.627 231.079 371.841 231.154 371.99 231.261V235.069H370.966C369.579 235.069 368.513 235.293 367.766 235.741C367.019 236.167 366.497 236.85 366.198 237.789ZM381.181 247.261C379.581 247.261 378.312 246.845 377.373 246.013C376.456 245.159 375.997 243.805 375.997 241.949V231.517L375.933 231.325L376.797 227.645H380.189V241.277C380.189 241.959 380.349 242.461 380.669 242.781C381.01 243.079 381.437 243.229 381.949 243.229C382.29 243.229 382.6 243.207 382.877 243.165C383.154 243.101 383.4 243.037 383.613 242.973V246.877C383.272 247.005 382.909 247.101 382.525 247.165C382.141 247.229 381.693 247.261 381.181 247.261ZM373.565 235.197V231.325H383.613V235.197H373.565ZM389.525 247.229C388.992 247.229 388.491 247.101 388.021 246.845C387.573 246.567 387.211 246.205 386.933 245.757C386.656 245.287 386.517 244.786 386.517 244.253C386.517 243.677 386.656 243.165 386.933 242.717C387.211 242.269 387.573 241.917 388.021 241.661C388.491 241.383 388.992 241.245 389.525 241.245C390.101 241.245 390.613 241.383 391.061 241.661C391.509 241.917 391.872 242.269 392.149 242.717C392.427 243.165 392.565 243.677 392.565 244.253C392.565 244.786 392.427 245.287 392.149 245.757C391.872 246.205 391.509 246.567 391.061 246.845C390.613 247.101 390.101 247.229 389.525 247.229Z" fill="#1D2434"/>
<path d="M315.086 325.557L315.096 325.547L308.692 319.373L308.682 319.382L308.377 319.07L287.592 298.965L271.921 322.196L257.323 343.747C255.759 346.052 258.061 349.706 260.559 348.866L314.427 330.705C316.424 330.041 316.552 327.129 315.086 325.557Z" fill="url(#paint2_linear_137_68)"/>
<path d="M296.508 307.61L283.621 326.631L313.418 330.802C316.024 331.174 317.087 327.461 314.962 325.41L296.508 307.61Z" fill="url(#paint3_linear_137_68)"/>
<path d="M256.127 300.136L283.612 326.63L313.704 282.22C315.268 279.914 312.976 276.27 310.477 277.091L256.668 294.822C254.711 295.467 254.406 298.476 256.127 300.136Z" fill="url(#paint4_linear_137_68)"/>
<defs>
<filter id="filter0_d_137_68" x="51.3455" y="30.5454" width="467.309" height="467.309" filterUnits="userSpaceOnUse" color-interpolation-filters="sRGB">
<feFlood flood-opacity="0" result="BackgroundImageFix"/>
<feColorMatrix in="SourceAlpha" type="matrix" values="0 0 0 0 0 0 0 0 0 0 0 0 0 0 0 0 0 0 127 0" result="hardAlpha"/>
<feOffset dy="8.22727"/>
<feGaussianBlur stdDeviation="26.3273"/>
<feColorMatrix type="matrix" values="0 0 0 0 0.156863 0 0 0 0 0.372549 0 0 0 0 0.960784 0 0 0 0.08 0"/>
<feBlend mode="normal" in2="BackgroundImageFix" result="effect1_dropShadow_137_68"/>
<feBlend mode="normal" in="SourceGraphic" in2="effect1_dropShadow_137_68" result="shape"/>
</filter>
<filter id="filter1_d_137_68" x="70.7478" y="50.249" width="427.906" height="427.906" filterUnits="userSpaceOnUse" color-interpolation-filters="sRGB">
<feFlood flood-opacity="0" result="BackgroundImageFix"/>
<feColorMatrix in="SourceAlpha" type="matrix" values="0 0 0 0 0 0 0 0 0 0 0 0 0 0 0 0 0 0 127 0" result="hardAlpha"/>
<feOffset dy="8.22727"/>
<feGaussianBlur stdDeviation="26.3273"/>
<feColorMatrix type="matrix" values="0 0 0 0 0.156863 0 0 0 0 0.372549 0 0 0 0 0.960784 0 0 0 0.08 0"/>
<feBlend mode="normal" in2="BackgroundImageFix" result="effect1_dropShadow_137_68"/>
<feBlend mode="normal" in="SourceGraphic" in2="effect1_dropShadow_137_68" result="shape"/>
</filter>
<filter id="filter2_d_137_68" x="93.4724" y="73.415" width="381.577" height="381.577" filterUnits="userSpaceOnUse" color-interpolation-filters="sRGB">
<feFlood flood-opacity="0" result="BackgroundImageFix"/>
<feColorMatrix in="SourceAlpha" type="matrix" values="0 0 0 0 0 0 0 0 0 0 0 0 0 0 0 0 0 0 127 0" result="hardAlpha"/>
<feOffset dy="8.22727"/>
<feGaussianBlur stdDeviation="26.3273"/>
<feColorMatrix type="matrix" values="0 0 0 0 0.156863 0 0 0 0 0.372549 0 0 0 0 0.960784 0 0 0 0.08 0"/>
<feBlend mode="normal" in2="BackgroundImageFix" result="effect1_dropShadow_137_68"/>
<feBlend mode="normal" in="SourceGraphic" in2="effect1_dropShadow_137_68" result="shape"/>
</filter>
<linearGradient id="paint0_linear_137_68" x1="284.999" y1="-23.5" x2="284.701" y2="417.273" gradientUnits="userSpaceOnUse">
<stop stop-color="white"/>
<stop offset="1" stop-color="#D0E6FF"/>
</linearGradient>
<linearGradient id="paint1_linear_137_68" x1="284.261" y1="117.842" x2="284.261" y2="394.11" gradientUnits="userSpaceOnUse">
<stop stop-color="#D6F0FF"/>
<stop offset="1" stop-color="#A3CEFF"/>
</linearGradient>
<linearGradient id="paint2_linear_137_68" x1="289.362" y1="328.832" x2="232.682" y2="396.347" gradientUnits="userSpaceOnUse">
<stop offset="0.00186302" stop-color="#0096E3"/>
<stop offset="0.2137" stop-color="#00A8FF"/>
<stop offset="0.3791" stop-color="#24B4FF"/>
<stop offset="0.5807" stop-color="#4CC2FF"/>
</linearGradient>
<linearGradient id="paint3_linear_137_68" x1="294.277" y1="288.197" x2="312.941" y2="420.068" gradientUnits="userSpaceOnUse">
<stop offset="0.013" stop-color="#26B2FA"/>
<stop offset="0.4657" stop-color="#36B5F7"/>
</linearGradient>
<linearGradient id="paint4_linear_137_68" x1="260.326" y1="301.76" x2="334.322" y2="293.686" gradientUnits="userSpaceOnUse">
<stop stop-color="#21A7EB"/>
<stop offset="1" stop-color="#18AAF5"/>
</linearGradient>
</defs>
</svg>
